<svg data-name="Calque 1" xmlns="http://www.w3.org/2000/svg" viewBox="0 0 45.05 52.43"><title>fa_key</title><path d="M33.3 15.75a19.61 19.61 0 0 0-3.72-9.62A15.07 15.07 0 0 0 21.33.57a17.61 17.61 0 0 0-4.5-.57 18.15 18.15 0 0 0-4.18.46 15.61 15.61 0 0 0-6.79 3.45 15.27 15.27 0 0 0-3.77 5.2 22.21 22.21 0 0 0-1.48 4.73c-.28 1.34-.39 2.43-.49 3.17L.01 18.1h.06a6.92 6.92 0 1 0 2.09-4.95 15.43 15.43 0 0 1 1-3.6A12.5 12.5 0 0 1 6.6 4.72a12.81 12.81 0 0 1 6.36-2.83 13.7 13.7 0 0 1 3.82-.09 10.78 10.78 0 0 1 3.69 1.12 10 10 0 0 1 4.79 5.7 26.93 26.93 0 0 1 1.23 7.7c0 .67 0 1.35.05 2v2.11a24.88 24.88 0 0 1-.58 3.75 29.5 29.5 0 0 1-2.86 7.26 46.58 46.58 0 0 1-9.06 11.33 58.68 58.68 0 0 1-4.6 3.79c-1.45 1-2.76 1.89-3.87 2.55s-2 1.12-2.65 1.42l-1 .45.37 1.41 1.13-.16a25.42 25.42 0 0 0 3.14-.74 32.36 32.36 0 0 0 4.69-1.79 39.05 39.05 0 0 0 5.68-3.22A41 41 0 0 0 28.6 34.74a38.19 38.19 0 0 0 2.29-4.19 32.54 32.54 0 0 0 1.69-4.68 28.14 28.14 0 0 0 .87-5.17c0-.44 0-.77.05-1.17v-1.31a21.88 21.88 0 0 0-.2-2.47z"/><circle cx="42.1" cy="24.13" r="2.95"/><circle cx="42.1" cy="8.27" r="2.95"/></svg>