<svg id="486dd9cc-9b8d-4a79-b414-632dfc14807f" data-name="Calque 1" xmlns="http://www.w3.org/2000/svg" viewBox="0 0 45.83 117.98">
  <title>sol_key</title>
  <path d="M4479.75,253.11a12.55,12.55,0,0,0-2.32-6.09,12.35,12.35,0,0,0-4.95-3.93,16.86,16.86,0,0,0-5.52-1.34c-0.44,0-.89-0.07-1.32-0.07l-0.65,0h-0.67l-0.58,0-0.71.08-0.66.09-0.46-2.08c-0.77-3.58-1.53-7.26-2.26-11a44.16,44.16,0,0,0,4.43-4.24,38.86,38.86,0,0,0,8.44-14.8,35.9,35.9,0,0,0,1-16.89,34.94,34.94,0,0,0-1.1-4.14,20.4,20.4,0,0,0-1.8-4.08,11.68,11.68,0,0,0-1.47-2,6.76,6.76,0,0,0-2.49-1.7l-0.44-.14a5.45,5.45,0,0,0-.6-0.12,2.73,2.73,0,0,0-.38,0h-0.12a2,2,0,0,0-.37,0,6.17,6.17,0,0,0-1.56.29,8.33,8.33,0,0,0-2.38,1.24,13.26,13.26,0,0,0-3.13,3.36,19.47,19.47,0,0,0-2,3.78,28,28,0,0,0-1.76,7.9c-0.11,1.32-.13,2.62-0.11,4l0,0.94,0.06,1,0.14,1.9c0.23,2.51.52,5,.87,7.42,0.39,2.79.84,5.53,1.33,8.23-1.12,1-2.29,1.94-3.48,2.86-1,.7-1.91,1.42-2.92,2.08l-1.61,1.1c-0.54.38-1.16,0.84-1.72,1.25a33.42,33.42,0,0,0-10.7,13,22.39,22.39,0,0,0-1.86,8.43,21.08,21.08,0,0,0,1.53,8.23,25.21,25.21,0,0,0,9.94,11.63,25.92,25.92,0,0,0,13.54,4.2,26.9,26.9,0,0,0,8.7-1.31c0.25,1.19.48,2.36,0.71,3.51a91.59,91.59,0,0,1,1.48,9.92c0.05,0.77.08,1.54,0.07,2.27,0,0.37,0,.72-0.07,1a7.16,7.16,0,0,1-.23,1,8.2,8.2,0,0,1-1.87,3.42,11.15,11.15,0,0,1-6.12,3.23,16.83,16.83,0,0,1-5.76.14l-0.35-.06a7.63,7.63,0,1,0-7.48-1.36l0.38,0.34a10.34,10.34,0,0,0,2.62,1.61,16.74,16.74,0,0,0,4.59,1.23,18.55,18.55,0,0,0,6.35-.26,12.74,12.74,0,0,0,6.94-3.83,9.74,9.74,0,0,0,2.15-4.06l0.14-.58c0-.24.06-0.39,0.1-0.59,0.05-.43.08-0.84,0.09-1.24,0-.8,0-1.61-0.07-2.42a92.7,92.7,0,0,0-1.52-10.09c-0.24-1.23-.5-2.49-0.76-3.76a16.51,16.51,0,0,0,2.85-1.57,16.12,16.12,0,0,0,4.59-4.76,20.31,20.31,0,0,0,2.56-5.88,23.9,23.9,0,0,0,.61-3.07A13.4,13.4,0,0,0,4479.75,253.11ZM4457,212.17c-0.26-2.41-.47-4.84-0.5-7.29,0-.61,0-1.22,0-1.83l0-.9,0-.94a28.37,28.37,0,0,1,.47-3.54,24,24,0,0,1,2.31-6.66,17.76,17.76,0,0,1,1.87-2.82,9.88,9.88,0,0,1,2.27-2.05,3.4,3.4,0,0,1,1.06-.45l0.23,0h0.1c0.08,0,.21,0,0.1,0a0.52,0.52,0,0,1-.13,0h0a5.22,5.22,0,0,1,1.52,1.6,14.25,14.25,0,0,1,2.14,6.37,26.58,26.58,0,0,1-2.22,13.84,36.82,36.82,0,0,1-8.15,11.39l-0.2.19C4457.61,216.81,4457.28,214.5,4457,212.17Zm8.4,59.16a22.43,22.43,0,0,1-6.36.65,21,21,0,0,1-12.12-4.72,20.09,20.09,0,0,1-7.08-11,16.37,16.37,0,0,1,2.1-12.24,32.06,32.06,0,0,1,9.46-9.45l1.44-1,1.62-1c1.16-.73,2.31-1.53,3.42-2.36l0.26-.2c0.73,3.44,1.5,6.82,2.24,10.12,0.16,0.7.32,1.38,0.48,2.07a15.32,15.32,0,0,0-3.82,1.57,14.38,14.38,0,0,0-5.84,6.42,11.71,11.71,0,0,0-.92,6.88,10,10,0,0,0,2.08,4.53,10.35,10.35,0,0,0,2.2,2c0.56,0.35.85,0.51,0.85,0.51l0.19-.23-0.58-.76a12.27,12.27,0,0,1-1.32-2.33,9.14,9.14,0,0,1-.72-3.93,9.71,9.71,0,0,1,1.61-4.86,11.77,11.77,0,0,1,7.37-5c1.46,6.22,2.9,12.16,4.14,17.77q0.68,3,1.29,5.9A14.58,14.58,0,0,1,4465.4,271.33Zm10.48-12.52a17.39,17.39,0,0,1-1.51,5.31,13.51,13.51,0,0,1-3.53,4.52,14,14,0,0,1-2.11,1.38q-0.59-2.73-1.23-5.58c-1.28-5.58-2.64-11.5-4-17.7h0.06l0.42,0h0.57a18.84,18.84,0,0,1,2,.06c2.77,0.22,5.49,1.07,7.3,3.12a8.77,8.77,0,0,1,2,3.87,11.46,11.46,0,0,1,.23,2.41A20.51,20.51,0,0,1,4475.88,258.8Z" transform="translate(-4433.98 -180.67)"/>
</svg>
